<svg width="40" height="40" viewBox="0 0 40 40" fill="none" xmlns="http://www.w3.org/2000/svg">
<path d="M16.3909 0C25.4434 0 32.7819 7.239 32.7819 16.1688C32.7819 20.192 31.2922 23.8721 28.8273 26.7015L39.603 37.6487C40.1436 38.1978 40.1304 39.0752 39.5737 39.6084C39.0171 40.1416 38.1276 40.1287 37.5871 39.5795L26.8221 28.6413C23.988 30.9503 20.3537 32.3375 16.3909 32.3375C7.33847 32.3375 0 25.0985 0 16.1688C0 7.239 7.33847 0 16.3909 0ZM16.3909 2.77179C8.89032 2.77179 2.80987 8.76982 2.80987 16.1688C2.80987 23.5677 8.89032 29.5657 16.3909 29.5657C23.8915 29.5657 29.972 23.5677 29.972 16.1688C29.972 8.76982 23.8915 2.77179 16.3909 2.77179Z" fill="#555555"/>
</svg>
