<svg width="40" height="40" viewBox="0 0 40 40" fill="none" xmlns="http://www.w3.org/2000/svg">
<path d="M19.9859 21.1437C24.9565 21.1437 28.9859 17.1147 28.9859 12.1446C28.9859 7.17457 24.9565 3.14555 19.9859 3.14555C15.0154 3.14555 10.9859 7.17457 10.9859 12.1446C10.9859 17.1147 15.0154 21.1437 19.9859 21.1437ZM20 0C26.6274 0 32 5.37203 32 11.9988C32 16.4069 29.6226 20.2599 26.0799 22.3457C33.4551 24.5642 38.9954 30.7818 39.9894 38.5008C40.0837 39.2332 39.5381 39.8999 38.7707 39.9899C38.0033 40.0799 37.3048 39.5592 37.2105 38.8268C36.1312 30.4461 28.8727 24.1375 20.0693 24.1375C11.22 24.1375 3.86763 30.4598 2.78953 38.8269C2.69516 39.5592 1.99658 40.0799 1.2292 39.9899C0.461823 39.8998 -0.0837579 39.2331 0.0106109 38.5007C1.00126 30.8124 6.57225 24.6061 13.9591 22.3653C10.3944 20.2874 8 16.4227 8 11.9988C8 5.37203 13.3726 0 20 0Z" fill="#555555"/>
</svg>
