<svg width="40" height="40" viewBox="0 0 40 40" fill="none" xmlns="http://www.w3.org/2000/svg">
<path d="M2.72159 34.4585C4.22468 34.4585 5.44318 35.699 5.44318 37.2293C5.44318 38.7595 4.22468 40 2.72159 40C1.2185 40 0 38.7595 0 37.2293C0 35.699 1.2185 34.4585 2.72159 34.4585ZM33.5663 34.4585C35.0694 34.4585 36.2879 35.699 36.2879 37.2293C36.2879 38.7595 35.0694 40 33.5663 40C32.0632 40 30.8447 38.7595 30.8447 37.2293C30.8447 35.699 32.0632 34.4585 33.5663 34.4585ZM39.9439 0.993284C40.1568 1.72706 39.7451 2.4976 39.0243 2.71434C37.5966 3.14368 36.6685 3.68582 36.2149 4.27956C35.7362 4.90619 35.4724 5.67068 35.4271 6.54231L35.4262 25.6627C35.3465 27.8903 34.8338 29.6454 33.8328 30.9025C32.7891 32.2133 31.1896 32.9515 28.9836 33.1655H7.09932C5.1469 33.1655 3.53181 32.6551 2.3083 31.6015C1.08396 30.5472 0.326867 29.0201 0.0176107 27.0822L0 26.86L0.00133744 14.9847C0.0911699 12.9235 0.737189 11.2239 1.95487 9.95353C3.19193 8.66289 4.91979 8.00283 7.09932 7.94253H26.1359C26.8874 7.94253 27.4967 8.56278 27.4967 9.32789C27.4967 10.093 26.8874 10.7133 26.1359 10.7133L7.13661 10.7127C5.65733 10.754 4.60485 11.1561 3.90275 11.8886C3.18127 12.6413 2.78195 13.6918 2.72159 15.0461V26.744C2.94041 28.0128 3.39448 28.9078 4.06593 29.486C4.75677 30.0809 5.74982 30.3948 7.09932 30.3948L28.8505 30.4014C30.2527 30.2611 31.1812 29.8326 31.7186 29.1578C32.2987 28.4291 32.6464 27.239 32.7055 25.6122L32.7073 6.47197C32.7818 4.9791 33.2343 3.6681 34.0665 2.57861C34.9239 1.45621 36.3279 0.636117 38.2534 0.0571101C38.9741 -0.159631 39.731 0.259508 39.9439 0.993284ZM26.1359 23.0703C26.8874 23.0703 27.4967 23.6906 27.4967 24.4557C27.4967 25.2208 26.8874 25.8411 26.1359 25.8411H9.51856C8.76702 25.8411 8.15777 25.2208 8.15777 24.4557C8.15777 23.6906 8.76702 23.0703 9.51856 23.0703H26.1359ZM26.1359 15.6817C26.8874 15.6817 27.4967 16.302 27.4967 17.0671C27.4967 17.8322 26.8874 18.4525 26.1359 18.4525H9.51856C8.76702 18.4525 8.15777 17.8322 8.15777 17.0671C8.15777 16.302 8.76702 15.6817 9.51856 15.6817H26.1359Z" fill="#555555"/>
</svg>
